HIERARCHY
ROOT Hips
{
 OFFSET 0.000000 0.000000 0.000000
 CHANNELS 6 Xposition Yposition Zposition Yrotation Xrotation Zrotation
 JOINT Chest
 {
  OFFSET 0.000000 10.385163 0.011643
  CHANNELS 3 Yrotation Xrotation Zrotation
  JOINT Chest2
  {
   OFFSET 0.000000 11.579334 -0.021150
   CHANNELS 3 Yrotation Xrotation Zrotation
   JOINT Chest3
   {
    OFFSET 0.000000 10.463212 0.000000
    CHANNELS 3 Yrotation Xrotation Zrotation
    JOINT Chest4
    {
     OFFSET 0.000000 10.463212 0.000000
     CHANNELS 3 Yrotation Xrotation Zrotation
     JOINT Neck
     {
      OFFSET 0.000000 14.544862 0.000000
      CHANNELS 3 Yrotation Xrotation Zrotation
      JOINT Head
      {
       OFFSET 0.000000 9.730630 -0.050295
       CHANNELS 3 Yrotation Xrotation Zrotation
       End Site
       {
        OFFSET 0.000000 18.757589 -0.026270
       }
      }
     }
     JOINT RightCollar
     {
      OFFSET -2.985174 8.102313 0.000000
      CHANNELS 3 Yrotation Xrotation Zrotation
      JOINT RightShoulder
      {
       OFFSET -13.558590 0.000000 0.000000
       CHANNELS 3 Yrotation Xrotation Zrotation
       JOINT RightElbow
       {
        OFFSET -28.208579 0.000000 0.000000
        CHANNELS 3 Yrotation Xrotation Zrotation
        JOINT RightWrist
        {
         OFFSET -23.322907 0.000000 0.010349
         CHANNELS 3 Yrotation Xrotation Zrotation
         End Site
         {
          OFFSET -17.603338 0.000000 0.000000
         }
        }
       }
      }
     }
     JOINT LeftCollar
     {
      OFFSET 2.985174 8.102313 0.000000
      CHANNELS 3 Yrotation Xrotation Zrotation
      JOINT LeftShoulder
      {
       OFFSET 13.558590 0.000000 0.000000
       CHANNELS 3 Yrotation Xrotation Zrotation
       JOINT LeftElbow
       {
        OFFSET 28.208579 0.000000 0.000000
        CHANNELS 3 Yrotation Xrotation Zrotation
        JOINT LeftWrist
        {
         OFFSET 23.322907 0.000000 0.010349
         CHANNELS 3 Yrotation Xrotation Zrotation
         End Site
         {
          OFFSET 17.603338 0.000000 0.000000
         }
        }
       }
      }
     }
    }
   }
  }
 }
 JOINT RightHip
 {
  OFFSET -8.341224 -0.057053 -0.005822
  CHANNELS 3 Yrotation Xrotation Zrotation
  JOINT RightKnee
  {
   OFFSET 0.000000 -44.280013 0.005508
   CHANNELS 3 Yrotation Xrotation Zrotation
   JOINT RightAnkle
   {
    OFFSET 0.000000 -43.261728 0.009315
    CHANNELS 3 Yrotation Xrotation Zrotation
    JOINT RightToe
    {
     OFFSET 0.000000 -8.082955 18.257715
     CHANNELS 3 Yrotation Xrotation Zrotation
     End Site
     {
      OFFSET 0.000000 -1.634678 7.189621
     }
    }
   }
  }
 }
 JOINT LeftHip
 {
  OFFSET 8.341224 -0.057053 -0.005822
  CHANNELS 3 Yrotation Xrotation Zrotation
  JOINT LeftKnee
  {
   OFFSET 0.000000 -44.280013 0.005508
   CHANNELS 3 Yrotation Xrotation Zrotation
   JOINT LeftAnkle
   {
    OFFSET 0.000000 -43.261728 0.009315
    CHANNELS 3 Yrotation Xrotation Zrotation
    JOINT LeftToe
    {
     OFFSET 0.000000 -8.082955 18.257715
     CHANNELS 3 Yrotation Xrotation Zrotation
     End Site
     {
      OFFSET 0.000000 -1.634678 7.189621
     }
    }
   }
  }
 }
}
MOTION
Frames: 15
Frame Time: 0.016667
130.684222 95.054375 -100.466892 -139.102884 -3.572814 -0.221511 -4.415829 8.461329 2.654566 -2.005596 3.735321 1.257197 -2.005592 3.735342 1.257191 -1.511360 2.797442 0.954838 2.024263 12.439682 0.038769 3.842872 -13.057045 -0.778009 2.456853 -4.120914 6.057285 -15.961324 -4.717684 72.835362 -7.182319 16.452915 -7.548757 6.148365 0.501838 -1.849182 0.043905 -3.073244 -10.467729 -6.827502 -24.722058 -63.819855 -22.854043 5.772460 -8.916659 -3.513715 -2.865891 4.409694 -12.185031 -15.643310 2.092041 -2.318680 0.259603 2.428552 -1.953516 0.521818 9.755105 0.000000 0.000000 0.000000 6.116616 19.133565 1.085909 0.622784 10.649146 1.276621 5.157453 -12.539822 -5.885421 -0.207143 -13.451262 1.740293
129.314056 94.832526 -102.379574 -138.989293 -3.871093 -0.137349 -4.563695 8.466096 2.769259 -2.073245 3.735455 1.310765 -2.073238 3.735472 1.310751 -1.562403 2.797222 0.995402 2.018812 12.383672 -0.146489 3.912153 -13.154849 -1.130837 2.475227 -4.085949 6.025856 -15.708647 -4.862935 72.876076 -7.918610 16.638684 -8.067549 6.176334 0.594749 -1.875318 -0.002875 -3.001430 -10.658984 -6.193687 -24.530266 -64.553634 -22.957481 6.018847 -8.938727 -3.629077 -2.890783 4.496557 -10.231155 -15.710620 1.624285 -1.424368 3.086616 2.095007 -1.739164 0.457508 5.977949 0.000000 0.000000 0.000000 7.371000 19.410280 1.925236 -0.173986 13.094904 1.276837 4.489436 -12.321956 -6.561348 -0.277597 -16.104023 1.935657
127.985246 94.693220 -104.339253 -138.996707 -4.083619 -0.114906 -4.628071 8.415771 2.910544 -2.104116 3.711253 1.374102 -2.104116 3.711253 1.374102 -1.585899 2.778767 1.043024 2.020718 12.388113 -0.292712 3.977246 -13.141243 -1.410227 2.515437 -4.010143 5.997093 -15.408382 -5.102630 72.930487 -8.600951 16.724297 -8.546463 6.224141 0.610349 -1.922157 -0.046656 -2.934307 -10.869054 -5.442589 -24.218546 -65.310094 -22.816607 6.500182 -9.037761 -3.778998 -2.960108 4.540637 -9.184149 -15.591294 1.529806 -0.075126 5.570500 1.836584 -2.134714 0.900139 2.927513 0.000000 0.000000 0.000000 8.397429 19.132532 2.751719 -0.758833 16.127586 1.280091 3.910675 -11.197400 -7.192709 -0.352082 -19.797177 2.017431
126.703150 94.677311 -106.375110 -139.144597 -4.155497 -0.172359 -4.584284 8.257775 3.094503 -2.087224 3.639482 1.453429 -2.087242 3.639480 1.453456 -1.573593 2.724704 1.102209 2.023775 12.504583 -0.400604 4.024344 -12.920814 -1.612504 2.606930 -3.873059 5.985306 -15.198756 -5.439955 72.967904 -9.266611 16.741353 -8.954251 6.359551 0.464497 -2.023330 -0.071715 -2.886055 -11.164052 -4.549967 -23.775710 -65.976341 -22.334537 7.309045 -9.326250 -4.043845 -3.119177 4.541680 -10.248241 -15.042203 2.154482 2.394881 6.962457 1.537520 -3.426699 2.207060 1.456954 0.000000 0.000000 0.000000 9.064285 18.177102 3.509811 -1.177615 19.875716 1.260909 3.559261 -8.746832 -7.813612 -0.448304 -25.539783 1.959208
125.462411 94.743946 -108.457964 -139.413117 -4.142011 -0.291032 -4.457533 8.045225 3.306310 -2.033566 3.543844 1.543199 -2.033585 3.543849 1.543225 -1.533686 2.652813 1.168892 2.031983 12.681870 -0.469423 4.062391 -12.588724 -1.739759 2.719223 -3.694476 5.977655 -14.939531 -5.872008 73.016266 -9.874082 16.663320 -9.318635 6.515537 0.242463 -2.146753 -0.091903 -2.841538 -11.477665 -3.547238 -23.207540 -66.649933 -21.608372 8.360616 -9.660249 -4.344277 -3.320243 4.497282 -12.197751 -14.286422 3.112196 5.317010 8.014674 1.149360 -5.183714 3.827065 0.741339 0.000000 0.000000 0.000000 9.475079 16.683064 4.230723 -1.420093 24.214984 1.213967 3.228589 -5.386571 -8.411427 -0.510322 -32.321342 1.724142
124.324909 94.829193 -110.490631 -139.712242 -4.087726 -0.475678 -4.291457 7.878379 3.519339 -1.962538 3.468898 1.633338 -1.962538 3.468898 1.633338 -1.480746 2.596485 1.235796 2.029011 12.808682 -0.467743 4.051587 -12.353505 -1.730186 2.814684 -3.528961 5.964762 -14.346884 -6.376922 73.118188 -10.233359 16.326731 -9.609042 6.572795 0.068961 -2.166245 -0.172608 -2.785944 -11.639415 -2.642825 -22.614015 -67.453853 -20.719654 9.562513 -9.761318 -4.456921 -3.474347 4.352756 -12.492502 -13.811217 3.788683 6.448375 9.530319 0.767735 -6.567362 4.437128 0.270537 -0.000000 -0.000000 -0.000000 9.389376 14.726117 4.872165 -0.997977 28.919077 1.237115 2.652645 -1.722444 -8.780483 -0.359014 -37.661151 1.052728
123.374021 94.911233 -112.446322 -140.093792 -3.951355 -0.785245 -4.064042 7.782512 3.743483 -1.864814 3.426005 1.728062 -1.864794 3.425985 1.728043 -1.407877 2.564263 1.306113 2.022704 12.831380 -0.372933 3.999628 -12.315297 -1.546522 2.901352 -3.412421 5.964556 -13.239989 -6.920658 73.317203 -10.264626 15.532407 -9.880653 6.423630 0.009607 -1.940544 -0.352055 -2.688456 -11.496363 -1.871672 -22.036306 -68.598536 -19.596443 10.831525 -9.387671 -4.302552 -3.585211 4.149275 -9.185558 -14.150463 3.930508 4.030473 12.152498 0.401537 -7.249281 3.222239 -0.023982 -0.000000 -0.000000 -0.000000 8.387266 12.184404 5.471900 0.814529 34.188749 1.527213 1.618012 2.631832 -8.889604 0.071162 -41.079582 -0.181471
122.526371 95.011885 -114.351825 -140.506997 -3.776334 -1.161919 -3.796131 7.730887 3.967898 -1.749401 3.403386 1.822702 -1.749380 3.403370 1.822688 -1.321811 2.547359 1.376373 2.005896 12.803070 -0.208036 3.900292 -12.374509 -1.227270 2.972161 -3.309529 5.957914 -11.801420 -7.544099 73.551328 -10.052115 14.488187 -10.108029 6.176431 -0.006645 -1.608188 -0.593514 -2.579493 -11.201434 -1.212751 -21.431687 -69.881274 -18.272927 12.207078 -8.749823 -3.962642 -3.641976 3.841763 -4.234027 -14.835669 3.759959 -0.204485 15.179230 0.053215 -7.537578 1.000804 -0.085801 0.000000 0.000000 0.000000 6.887025 9.211045 6.103012 3.470600 39.841910 2.190090 0.417454 7.287000 -8.736129 0.606676 -43.031163 -1.815867
121.593707 95.132674 -116.190319 -140.706005 -3.730326 -1.432640 -3.594887 7.746568 4.135426 -1.663126 3.410827 1.893764 -1.663126 3.410827 1.893764 -1.257570 2.553021 1.429207 1.940491 12.772144 -0.010611 3.694933 -12.440481 -0.825915 2.967079 -3.168167 5.878979 -10.293570 -8.335125 73.701715 -9.654144 13.636816 -10.134018 6.034199 -0.058605 -1.462765 -0.853108 -2.538450 -11.042864 -0.773255 -20.784728 -70.819617 -16.996781 13.799392 -8.268294 -3.460372 -3.523875 3.254157 -1.016663 -14.895517 3.582273 -3.196671 17.434731 -0.074266 -7.587585 -1.097779 -0.190379 0.000000 0.000000 0.000000 5.909658 6.261350 6.675508 5.524248 45.057215 3.072975 -0.324669 10.484972 -8.151491 0.949507 -42.446935 -3.504592
120.453481 95.283486 -117.934998 -140.480632 -3.930397 -1.509349 -3.544037 7.881059 4.228046 -1.643281 3.470361 1.934853 -1.643312 3.470355 1.934847 -1.243141 2.597607 1.460041 1.796319 12.741012 0.231480 3.320965 -12.508728 -0.306589 2.846253 -2.938568 5.662157 -8.720784 -9.379410 73.692904 -9.070728 13.095668 -9.848246 6.085158 -0.167511 -1.641963 -1.142607 -2.620569 -11.167051 -0.663179 -20.112165 -71.178546 -15.824023 15.693388 -8.131525 -2.710411 -3.104243 2.243624 -1.393666 -13.750500 3.566947 -3.407343 18.358468 0.234799 -7.323411 -2.704443 -0.489851 -0.000000 -0.000000 0.000000 5.861349 3.455085 7.053240 6.175160 49.624206 3.830621 -0.175743 11.206762 -6.900317 0.796837 -37.874799 -5.094530
119.228240 95.454436 -119.612669 -140.039994 -4.256987 -1.481427 -3.559977 8.083736 4.265701 -1.652661 3.559996 1.953138 -1.652692 3.559982 1.953131 -1.250546 2.664746 1.474023 1.604456 12.706379 0.506833 2.841960 -12.582627 0.296177 2.647106 -2.669775 5.374489 -7.076927 -10.592130 73.570068 -8.297779 12.720607 -9.366063 6.235145 -0.293971 -2.016048 -1.450876 -2.770779 -11.426589 -0.746279 -19.409008 -71.203565 -14.713813 17.839955 -8.145602 -1.842160 -2.468904 0.962658 -3.505763 -11.962571 3.548639 -2.320252 18.549474 0.749261 -6.806873 -4.189745 -0.849379 -0.000000 -0.000000 0.000000 6.359094 0.636281 7.226995 6.132413 53.741072 4.588523 0.444036 10.445969 -5.289770 0.090425 -30.802335 -6.470228
118.097381 95.617390 -121.286933 -139.765649 -4.519670 -1.436847 -3.498864 8.226170 4.248125 -1.626388 3.623992 1.945204 -1.626388 3.623992 1.945204 -1.230947 2.712875 1.468084 1.417530 12.709077 0.742008 2.388208 -12.583408 0.821438 2.428319 -2.457779 5.148160 -5.610798 -11.799555 73.424435 -7.382580 12.561307 -8.838072 6.413289 -0.422794 -2.478811 -1.701267 -2.903822 -11.670321 -0.749365 -18.630881 -71.129516 -13.785980 20.180813 -8.167642 -1.188761 -1.830434 -0.317243 -5.201394 -10.269362 3.551409 -1.358865 18.628534 1.084049 -6.404027 -5.533009 -1.075520 0.000000 0.000000 0.000000 7.247139 -2.180829 7.212114 6.100127 57.186467 5.700041 0.908524 9.501162 -3.942231 -0.772854 -24.573628 -7.492987
117.162821 95.756441 -122.999517 -139.772261 -4.644782 -1.419404 -3.309262 8.244892 4.163376 -1.540970 3.634690 1.904394 -1.540954 3.634710 1.904397 -1.166669 2.721298 1.437005 1.251367 12.784629 0.921543 1.997048 -12.445773 1.232845 2.201341 -2.341986 5.061366 -4.481118 -12.961521 73.312522 -6.361073 12.791158 -8.304624 6.625408 -0.547807 -3.072467 -1.859042 -2.992478 -11.862140 -0.635695 -17.752823 -70.923097 -13.146525 22.970976 -8.213200 -0.891718 -1.234239 -1.676559 -5.758548 -8.935851 3.735169 -0.952493 18.826447 1.068387 -6.336098 -6.731750 -1.050113 0.000000 0.000000 0.000000 8.814702 -5.066863 6.994376 6.244236 59.930330 7.604088 0.984375 8.729618 -3.071030 -1.538256 -19.937256 -8.249753
116.322644 95.887497 -124.708695 -139.945254 -4.705673 -1.382608 -3.042143 8.204033 4.022249 -1.419738 3.619883 1.836868 -1.419727 3.619907 1.836873 -1.075337 2.710720 1.385624 1.090030 12.899345 1.060420 1.632887 -12.233476 1.564406 1.957730 -2.282174 5.033928 -3.535359 -14.119120 73.207128 -5.179917 13.223089 -7.684209 6.861715 -0.655133 -3.757980 -1.958605 -3.062560 -12.039584 -0.434685 -16.805219 -70.609886 -12.698678 25.963254 -8.263595 -0.826516 -0.647355 -3.027313 -5.902975 -7.691194 3.997592 -0.684266 18.913979 0.890271 -6.387426 -7.788040 -0.880198 -0.000000 -0.000000 0.000000 10.809955 -7.935673 6.539818 6.338096 61.988997 9.793705 0.886587 7.802316 -2.448661 -2.167452 -16.129486 -8.809599
115.450490 96.030151 -126.352884 -140.321933 -4.730931 -1.274848 -2.706793 8.166764 3.857621 -1.267907 3.607129 1.757755 -1.267907 3.607129 1.757755 -0.961012 2.701742 1.325379 0.937088 12.990864 1.130150 1.314055 -12.062973 1.760183 1.728778 -2.255703 4.959620 -2.555980 -15.221082 73.092665 -3.770347 13.376183 -6.973829 7.039499 -0.743613 -4.300120 -2.027312 -3.109469 -12.162204 0.009705 -15.825212 -70.501034 -12.227840 28.330600 -8.122229 -0.828601 -0.206150 -3.854376 -5.681050 -6.459465 4.094704 -0.690881 18.827618 0.756435 -6.274465 -8.690047 -0.710883 0.000000 0.000000 0.000000 12.243501 -10.546972 5.955458 6.487109 63.233916 11.210930 0.739030 7.029510 -1.954891 -2.374696 -14.198722 -9.005756
